<?xml version="1.0" encoding="iso-8859-1"?>
<!-- Generator: Adobe Illustrator 18.0.0, SVG Export Plug-In . SVG Version: 6.00 Build 0)  -->
<!DOCTYPE svg PUBLIC "-//W3C//DTD SVG 1.1//EN" "http://www.w3.org/Graphics/SVG/1.1/DTD/svg11.dtd">
<svg version="1.1" id="Capa_1" xmlns="http://www.w3.org/2000/svg" xmlns:xlink="http://www.w3.org/1999/xlink" x="0px" y="0px"
	 viewBox="0 0 370.922 370.922" style="enable-background:new 0 0 370.922 370.922;" xml:space="preserve">
<g>
	<path d="M336.344,199.598l-45.662-79.09l-3.19,22.826l-22.791-7.826l45.771,79.279l0.24,0.402
		c3.098,4.998,4.734,10.771,4.734,16.699c0,17.375-14.016,31.539-31.336,31.777l-0.197-0.014l-0.502,0.018h-61.801v-20l-44.311,35
		l44.311,35v-20h62.057c0.02,0,0.043,0,0.064,0l0.172-0.002c33.957-0.127,61.543-27.793,61.543-61.779
		C345.447,220.457,342.301,209.297,336.344,199.598z"/>
	<path d="M87.227,263.67c-11.318,0-21.863-6.09-27.522-15.891c-5.658-9.801-5.658-21.98-0.002-31.781l27.936-48.385l17.124,10.113
		l-7.604-55.953l-52.67,20.356l17.317,10.227L33.723,201c-10.998,19.053-10.998,42.725,0,61.779
		c11.002,19.053,31.504,30.891,53.504,30.891h79.221l-15-15.586l15-14.414H87.227z"/>
	<path d="M115.428,119.484l42.488-73.596C163.576,36.088,174.121,30,185.44,30c11.316,0,21.863,6.088,27.521,15.889l23.705,41.061
		l-17.966,10.045l52.174,21.596l8.926-55.756l-16.944,9.474l-23.913-41.419C227.94,11.836,207.44,0,185.44,0
		c-22.002,0-42.502,11.836-53.504,30.889l-42.488,73.596l22.324-7.598L115.428,119.484z"/>
	<polygon points="185.203,227.607 224.08,132.035 224.08,117.607 146.842,117.607 146.842,146.574 167.389,146.574 167.389,137.66 
		197.992,137.719 160.33,227.607 	"/>
	<path d="M101.934,321.754c-14.113,0-20.752,6.892-20.752,23.363v2.441c0,16.471,6.639,23.363,20.752,23.363
		c14.184,0,20.82-6.893,20.82-23.363v-2.441C122.754,328.646,116.117,321.754,101.934,321.754z M111.227,347.559
		c0,9.516-1.957,14.824-8.943,14.824h-0.629c-6.988,0-9.014-5.309-9.014-14.824v-2.441c0-9.516,2.025-14.824,9.014-14.824h0.629
		c6.986,0,8.943,5.309,8.943,14.824V347.559z"/>
	<polygon points="124.85,331.086 137.426,331.086 137.426,370.129 148.746,370.129 148.746,331.086 161.393,331.086 
		161.393,322.547 124.85,322.547 	"/>
	<polygon points="193.672,341.58 177.811,341.58 177.811,322.547 166.492,322.547 166.492,370.129 177.811,370.129 177.811,350.121 
		193.672,350.121 193.672,370.129 204.99,370.129 204.99,322.547 193.672,322.547 	"/>
	<polygon points="212.815,370.129 246.143,370.129 246.143,361.59 224.133,361.59 224.133,350.121 242.649,350.121 242.649,341.58 
		224.133,341.58 224.133,331.086 246.143,331.086 246.143,322.547 212.815,322.547 	"/>
	<path d="M270.737,322.547H252.85v47.582h11.318v-17.08h5.801l7.475,17.08h12.229l-8.594-18.484
		c4.891-1.768,8.594-5.551,8.594-13.236v-1.221C289.672,324.559,279.61,322.547,270.737,322.547z M278.213,338.102
		c0,5.369-3.912,6.406-6.986,6.406h-7.059v-13.422h7.059c3.074,0,6.986,1.037,6.986,6.406V338.102z"/>
</g>
<g>
</g>
<g>
</g>
<g>
</g>
<g>
</g>
<g>
</g>
<g>
</g>
<g>
</g>
<g>
</g>
<g>
</g>
<g>
</g>
<g>
</g>
<g>
</g>
<g>
</g>
<g>
</g>
<g>
</g>
</svg>
